<?xml version="1.0" encoding="utf-8"?>
<!-- Generator: Adobe Illustrator 23.0.2, SVG Export Plug-In . SVG Version: 6.00 Build 0)  -->
<svg version="1.1" id="Слой_1" xmlns="http://www.w3.org/2000/svg" xmlns:xlink="http://www.w3.org/1999/xlink" x="0px" y="0px"
	 viewBox="0 0 172.5 30.27" style="enable-background:new 0 0 172.5 30.27;" xml:space="preserve">
<style type="text/css">
	.st0{fill:#FFFFFF;}
	.st1{fill:#D93740;}
	.st2{fill:#1050BD;}
</style>
<g>
	<path class="st0" d="M47.08,6.86C46.5,6.28,45.8,5.82,45,5.49C44.2,5.17,43.32,5,42.38,5h-8.1v19.92h2.64v-6.9h5.5
		c0.93,0,1.81-0.16,2.6-0.48c0.8-0.32,1.49-0.78,2.07-1.36c0.58-0.58,1.03-1.27,1.35-2.07c0.32-0.79,0.48-1.66,0.48-2.59
		c0-0.93-0.16-1.81-0.49-2.6S47.66,7.44,47.08,6.86z M46.29,11.54c0,0.57-0.1,1.11-0.3,1.6s-0.47,0.92-0.82,1.28
		c-0.35,0.36-0.76,0.64-1.24,0.85c-0.47,0.2-1,0.31-1.56,0.31h-5.45V7.45h5.4c0.57,0,1.1,0.11,1.58,0.31
		c0.48,0.21,0.9,0.5,1.25,0.86c0.35,0.36,0.63,0.8,0.83,1.3C46.19,10.42,46.29,10.97,46.29,11.54z"/>
	<path class="st0" d="M56.67,10.04c-0.58,0.14-1.12,0.35-1.61,0.61c-0.49,0.26-0.94,0.58-1.31,0.94c-0.04,0.04-0.08,0.08-0.12,0.12
		l-0.12-1.88h-2.33v15.09h2.6V17.3c0-0.83,0.12-1.58,0.36-2.21c0.24-0.62,0.57-1.14,0.98-1.55c0.41-0.41,0.92-0.72,1.5-0.93
		c0.6-0.22,1.26-0.33,1.98-0.33h1.93V9.83h-1.99C57.88,9.83,57.25,9.9,56.67,10.04z"/>
	<path class="st0" d="M75.25,11.75c-0.73-0.71-1.6-1.27-2.58-1.68c-1.97-0.82-4.43-0.82-6.39,0c-0.98,0.41-1.84,0.97-2.57,1.68
		c-0.73,0.71-1.31,1.56-1.72,2.52c-0.41,0.96-0.63,2.01-0.63,3.1c0,1.1,0.21,2.15,0.63,3.11c0.42,0.96,1,1.8,1.72,2.52
		c0.72,0.71,1.59,1.28,2.57,1.68c0.98,0.41,2.05,0.62,3.18,0.62c1.14,0,2.21-0.21,3.2-0.62c0.98-0.41,1.85-0.97,2.58-1.68
		c0.73-0.71,1.31-1.56,1.72-2.52c0.42-0.96,0.63-2.01,0.63-3.11c0-1.09-0.21-2.14-0.63-3.1C76.56,13.31,75.98,12.46,75.25,11.75z
		 M75.01,17.37c0,0.78-0.15,1.51-0.43,2.18c-0.29,0.67-0.69,1.25-1.18,1.74c-0.5,0.49-1.08,0.87-1.75,1.15
		c-1.33,0.55-2.98,0.55-4.31,0c-0.67-0.27-1.26-0.66-1.75-1.15c-0.49-0.49-0.89-1.07-1.18-1.74c-0.29-0.67-0.43-1.4-0.43-2.18
		c0-0.77,0.15-1.5,0.43-2.17c0.29-0.67,0.68-1.25,1.18-1.74c0.5-0.49,1.08-0.88,1.75-1.15c0.66-0.28,1.39-0.42,2.15-0.42
		s1.49,0.14,2.15,0.42c0.67,0.28,1.26,0.67,1.76,1.16c0.5,0.48,0.9,1.07,1.18,1.74C74.87,15.87,75.01,16.6,75.01,17.37z"/>
	<polygon class="st0" points="85.86,21.1 81.02,9.83 78.2,9.83 84.77,24.92 86.97,24.92 93.54,9.83 90.72,9.83 	"/>
	<path class="st0" d="M108.08,11.75c-0.72-0.71-1.59-1.28-2.58-1.68c-1.99-0.82-4.43-0.81-6.38,0c-0.98,0.41-1.84,0.97-2.57,1.68
		c-0.73,0.71-1.31,1.56-1.72,2.52c-0.41,0.96-0.63,2.01-0.63,3.1s0.21,2.14,0.63,3.1c0.41,0.96,0.99,1.81,1.72,2.52
		c0.73,0.71,1.59,1.28,2.57,1.69c0.98,0.41,2.05,0.62,3.19,0.62c0.85,0,1.67-0.12,2.43-0.35c0.76-0.23,1.46-0.55,2.1-0.96
		c0.63-0.41,1.2-0.9,1.68-1.46c0.48-0.56,0.88-1.19,1.18-1.85l0.31-0.7h-2.8l-0.14,0.25c-0.23,0.4-0.51,0.78-0.83,1.1
		c-0.32,0.33-0.69,0.62-1.1,0.85c-0.4,0.24-0.85,0.42-1.32,0.55c-1.08,0.29-2.35,0.25-3.47-0.17c-0.64-0.24-1.22-0.58-1.73-1.02
		c-0.51-0.43-0.93-0.97-1.26-1.59c-0.25-0.47-0.42-0.99-0.52-1.55h13.06l0.44,0l0.08-0.67c0.01-0.09,0.02-0.21,0.02-0.36
		c0-1.09-0.21-2.14-0.63-3.1C109.38,13.31,108.8,12.46,108.08,11.75z M107.71,16.16H96.87c0.1-0.49,0.27-0.96,0.5-1.39
		c0.31-0.6,0.72-1.12,1.21-1.56c0.48-0.43,1.05-0.78,1.69-1.03c1.26-0.49,2.83-0.5,4.09,0c0.63,0.25,1.19,0.59,1.67,1.03
		c0.48,0.44,0.88,0.96,1.19,1.56C107.44,15.2,107.61,15.67,107.71,16.16z"/>
	<path class="st0" d="M117.11,13.38c0.51-0.47,1.1-0.84,1.76-1.1c1.14-0.45,2.46-0.5,3.61-0.19c0.48,0.13,0.94,0.32,1.35,0.57
		c0.42,0.25,0.8,0.55,1.13,0.9c0.34,0.35,0.62,0.75,0.85,1.18l0.14,0.27h2.7l-0.27-0.68c-0.29-0.72-0.68-1.39-1.17-1.99
		c-0.49-0.6-1.06-1.12-1.7-1.54c-0.64-0.42-1.36-0.76-2.13-0.99c-1.81-0.54-3.92-0.45-5.64,0.27c-0.98,0.41-1.84,0.97-2.56,1.68
		c-0.73,0.71-1.3,1.56-1.72,2.52c-0.41,0.96-0.63,2.01-0.63,3.1s0.21,2.14,0.63,3.1c0.41,0.96,0.99,1.81,1.71,2.52
		c0.72,0.71,1.59,1.28,2.57,1.69c0.98,0.41,2.05,0.62,3.18,0.62c0.85,0,1.68-0.12,2.45-0.35c0.78-0.24,1.49-0.57,2.13-0.99
		c0.64-0.42,1.22-0.94,1.7-1.54c0.49-0.6,0.88-1.27,1.16-1.98l0.27-0.68h-2.69l-0.14,0.26c-0.24,0.44-0.53,0.84-0.86,1.18
		c-0.34,0.35-0.72,0.65-1.14,0.89c-0.41,0.24-0.87,0.43-1.35,0.57c-1.14,0.31-2.44,0.26-3.58-0.19c-0.66-0.25-1.25-0.62-1.76-1.09
		c-0.51-0.47-0.92-1.05-1.22-1.73c-0.3-0.67-0.46-1.43-0.46-2.28c0-0.83,0.15-1.6,0.45-2.27C116.2,14.43,116.61,13.85,117.11,13.38z
		"/>
	<path class="st0" d="M136.73,22.64c-0.33-0.1-0.62-0.28-0.88-0.53c-0.26-0.26-0.47-0.62-0.64-1.08c-0.17-0.48-0.26-1.11-0.26-1.87
		v-6.9h5.33V9.83h-5.33V5.61l-2.21,0.02l-0.38,4.11l-2.6,0.24v2.28h2.59v6.9c0,1.08,0.13,2.01,0.4,2.77
		c0.27,0.78,0.66,1.41,1.14,1.9c0.49,0.49,1.08,0.84,1.74,1.05c0.64,0.21,1.34,0.31,2.09,0.31h3.14l0.02-2.38h-3.04
		C137.47,22.81,137.09,22.75,136.73,22.64z"/>
	<path class="st0" d="M154.62,17.72c0,1.75-0.39,3.06-1.15,3.9c-0.77,0.83-1.87,1.24-3.38,1.24c-1.53,0-2.65-0.41-3.4-1.25
		c-0.76-0.85-1.14-2.15-1.14-3.88V9.83h-2.6v7.93c0,1.23,0.16,2.32,0.49,3.25c0.33,0.95,0.81,1.75,1.43,2.38
		c0.62,0.64,1.39,1.12,2.28,1.44c0.87,0.31,1.86,0.47,2.94,0.47s2.07-0.16,2.94-0.47c0.89-0.32,1.65-0.8,2.28-1.44
		c0.62-0.63,1.1-1.44,1.43-2.38c0.32-0.93,0.49-2.02,0.49-3.25V9.83h-2.6V17.72z"/>
	<path class="st0" d="M172.2,18.93c-0.19-0.44-0.45-0.83-0.78-1.15c-0.31-0.31-0.69-0.57-1.11-0.78c-0.4-0.2-0.82-0.36-1.26-0.49
		c-0.43-0.13-0.87-0.23-1.31-0.3c-0.43-0.07-0.85-0.13-1.26-0.18c-0.72-0.06-1.35-0.15-1.9-0.26c-0.52-0.11-0.95-0.24-1.29-0.41
		c-0.3-0.14-0.52-0.32-0.66-0.53c-0.13-0.19-0.2-0.43-0.2-0.73c0-0.27,0.06-0.55,0.17-0.82c0.11-0.26,0.3-0.49,0.55-0.7
		c0.27-0.22,0.63-0.4,1.09-0.54c0.47-0.14,1.06-0.22,1.75-0.22c0.48,0,0.93,0.06,1.33,0.17c0.39,0.11,0.73,0.26,1.01,0.45
		c0.27,0.18,0.47,0.4,0.63,0.65c0.15,0.25,0.23,0.52,0.24,0.82l0.02,0.48h2.56v-0.5c0-0.64-0.14-1.25-0.42-1.8
		c-0.28-0.54-0.68-1.02-1.18-1.42c-0.5-0.39-1.1-0.69-1.8-0.91c-0.69-0.21-1.47-0.32-2.31-0.32c-1.11,0-2.07,0.13-2.85,0.38
		c-0.79,0.26-1.45,0.61-1.95,1.04c-0.51,0.44-0.88,0.96-1.1,1.53c-0.22,0.56-0.33,1.13-0.33,1.71c0,0.56,0.09,1.06,0.28,1.48
		c0.18,0.42,0.43,0.79,0.74,1.09c0.3,0.3,0.66,0.55,1.06,0.74c0.37,0.18,0.78,0.33,1.2,0.45c0.41,0.12,0.84,0.21,1.27,0.27
		c0.42,0.06,0.82,0.11,1.22,0.16c0.69,0.08,1.32,0.19,1.87,0.31c0.53,0.12,0.99,0.28,1.36,0.47c0.34,0.17,0.6,0.38,0.78,0.63
		c0.16,0.23,0.24,0.5,0.24,0.85c0,0.69-0.32,1.23-0.97,1.65c-0.71,0.46-1.83,0.7-3.32,0.7c-0.5,0-0.98-0.07-1.42-0.22
		c-0.44-0.15-0.83-0.34-1.16-0.58c-0.32-0.23-0.57-0.49-0.75-0.79c-0.17-0.28-0.26-0.56-0.27-0.85l-0.01-0.49h-2.57v0.5
		c0,0.6,0.15,1.2,0.46,1.78c0.3,0.57,0.72,1.09,1.26,1.54c0.53,0.44,1.18,0.81,1.92,1.08c0.74,0.27,1.58,0.41,2.49,0.41
		c1.07,0,2.03-0.1,2.87-0.31c0.86-0.21,1.59-0.51,2.18-0.91c0.61-0.41,1.09-0.93,1.42-1.54c0.33-0.61,0.49-1.31,0.49-2.07
		C172.5,19.89,172.4,19.37,172.2,18.93z"/>
	<g>
		<g>
			<path class="st1" d="M10.83,28.94l-0.26-0.45c-0.01-0.01-0.01-0.03-0.02-0.04l-0.01-0.02l0,0c-0.05-0.07-0.09-0.15-0.15-0.24
				c-1.44-2.14-6.15-9.35-5.34-16.48c0.6-5.51,5.42-7.66,9.11-6.76c0.32,0.08,2.88,0.59,2.79,3.13c-0.05,1.35-0.88,2.85-3.57,4.01
				c-1.24,0.53-0.81,0.41-2.68,0.99c-0.94,0.29-1.53,0.35-1.6,0.38c0,0,0,0,0,0c-0.08,0.03-0.14,0.1-0.14,0.19
				c0,0.11,0.09,0.2,0.2,0.2l0.31,0v0c0.01,0,0.03,0,0.04,0c1.75,0.02,6.58-0.88,8.99-2.3c1.73-0.98,3.27-2.56,3.27-4.87
				c0-1.95-1-4.07-4.31-5.69c-2.01-0.99-5.97-1.73-10.27,0.16C3.59,2.74,1.32,6.4,0.69,8.34C-0.6,12.32-0.02,16.12,2,19.74
				c2.11,3.77,4.32,6.3,8.14,9.11c0.1,0.07,0.23,0.19,0.35,0.28c0.09,0.06,0.14,0.09,0.18,0.08c0,0,0,0,0.01,0
				c0.1,0,0.18-0.08,0.18-0.18c0-0.03-0.02-0.06-0.04-0.09L10.83,28.94z"/>
			<path class="st2" d="M23.24,6.26L23.24,6.26c-0.04-0.07-0.11-0.12-0.2-0.12c-0.12,0-0.22,0.1-0.22,0.22c0,0.01,0,0.01,0,0.02l0,0
				c0.28,2.1,0.58,11.23-7.51,16.31c-0.54,0.34-0.66-0.09-0.71-0.24c-0.42-1.41-0.25-4.27,0.14-7.34c0.01-0.11,0.03-0.28,0.03-0.29
				c-0.04-0.1-0.44,0.19-0.72,0.46c-0.8,0.8-2.06,2.89-2.69,5.68c-0.82,3.86,0.1,7.95,0.71,8.94c0.21,0.34,0.31,0.4,0.72,0.17
				c1.96-1.05,3.06-2.01,4.45-3.21c3.02-2.71,4.98-5.5,6.3-8.24c1.77-3.6,1.98-8.43-0.3-12.3L23.24,6.26z"/>
		</g>
	</g>
</g>
</svg>
