<svg width="97" height="97" viewBox="0 0 97 97" fill="none" xmlns="http://www.w3.org/2000/svg">
<path d="M48.0332 -5.77862e-06L29.6066 3.72399L14.0066 14.216L3.61067 29.8786L0 48.3292L3.72395 66.7558L14.2159 82.3558L29.8786 92.7518L48.3278 96.3624L66.7545 92.6384L82.3545 82.1465L92.7504 66.4838L96.3624 48.0345L92.6384 29.6079L82.1464 14.008L66.4838 3.61065L48.0332 -5.77862e-06Z" fill="#178CF2"/>
<path opacity="0.25" d="M79.4197 62.0252L71.9317 49.1905H91.3183L79.4197 62.0252ZM67.3824 66.0852L71.4677 49.7439L78.849 62.3985L67.3824 66.0852ZM48.3384 49.4185L48.5584 49.1905H70.9037L66.6184 66.3305L65.5824 66.6638L48.3384 49.4185ZM61.4957 80.6051L65.7624 67.8038L79.629 81.6718L61.4957 80.6051ZM47.6291 73.4945L60.4798 80.9905L47.6291 93.8398V73.4945ZM36.0611 79.2411L32.9692 66.0065L46.5865 72.9251L36.0611 79.2411ZM19.3785 79.4331L31.5185 66.8505L32.0038 66.9865L31.8158 66.5425L32.2825 66.0585L35.4078 79.4331H19.3785ZM24.0705 50.1292L30.8238 65.9518L17.9732 62.3692L23.4652 49.1905H24.0466L24.3238 49.6625L24.4838 49.1905H46.9478V49.8799L32.4011 64.9558L31.9745 64.7385L32.0985 65.2705L31.5252 65.8638L24.6971 49.8625C24.6225 49.6892 24.4252 49.6092 24.2505 49.6825C24.0772 49.7572 23.9972 49.9572 24.0705 50.1292ZM5.6866 49.1905H22.7279L17.4026 61.9718L5.6866 49.1905ZM17.4198 37.9132L23.6465 48.5105H4.43855L17.4198 37.9132ZM46.5171 24.1906L30.7491 31.0239L36.0038 18.4093L46.5171 24.1906ZM59.3264 17.8493L47.8664 24.1666L47.6291 24.0306V6.15197L59.3264 17.8493ZM62.8837 33.3652L62.4731 32.6479L62.4277 32.5679L48.5544 24.5639L59.7544 18.3893L66.197 29.9319L62.8837 33.3652ZM77.9584 18.7213L78.9877 35.7706L65.7624 31.3626L66.5744 30.5199C66.6291 30.5559 66.6917 30.5799 66.7584 30.5799C66.8157 30.5799 66.8717 30.5666 66.9251 30.5372C67.0877 30.4452 67.1477 30.2386 67.0557 30.0746L67.037 30.0413L77.9584 18.7213ZM91.2704 48.5105H72.6464L79.4304 36.8039L91.2704 48.5105ZM65.3131 31.8279C65.3517 31.9039 65.4184 31.9652 65.5051 31.9946L78.853 36.4439L71.8597 48.5105H71.5384L63.2344 33.9812L65.3131 31.8279ZM62.7424 34.4919L70.7544 48.5105H49.2158L62.7424 34.4919ZM47.6291 48.5105V24.8159L61.9277 33.0652L62.3917 33.8759L48.2705 48.5105H47.6291ZM30.7052 31.7852L46.9478 24.7453V48.0292L30.7052 31.7852ZM24.1586 48.0399L17.9971 37.5519L29.5331 32.3066L24.1586 48.0399ZM30.2558 32.2986L46.4677 48.5105H24.7171L30.2558 32.2986ZM33.0371 65.2772L46.9478 50.8585V72.3465L33.0371 65.2772ZM47.6291 72.4345V50.1545L47.8664 49.9092L64.8544 66.8972L47.6291 72.4345ZM60.8411 80.4131L48.1185 72.9918L65.1397 67.5212L60.8411 80.4131ZM93.0996 48.5105H92.237L79.9503 36.3612L89.8024 31.9826C89.973 31.9066 90.0516 31.7052 89.9743 31.5332C89.8983 31.3612 89.697 31.2839 89.525 31.3599L79.6677 35.7426L78.5997 18.0573L79.6023 17.0199C79.7317 16.8839 79.7277 16.6679 79.593 16.5386C79.457 16.4093 79.2423 16.412 79.113 16.5466L66.6904 29.4199L60.4478 18.2333L78.233 17.1226C78.4197 17.1106 78.5624 16.9493 78.5517 16.7613C78.5397 16.5746 78.3983 16.4293 78.1903 16.4426L60.4544 17.5519L65.9171 6.62797C66.0024 6.45997 65.9344 6.25597 65.7651 6.17197C65.5971 6.08797 65.3931 6.15597 65.3091 6.32397L59.7931 17.3546L47.6291 5.18931V4.1853C47.6291 3.99731 47.4771 3.84532 47.2891 3.84532C47.1011 3.84532 46.9478 3.99731 46.9478 4.1853V23.6519L36.3585 17.8279L46.4065 5.54531C46.5251 5.39997 46.5038 5.18664 46.3585 5.06797C46.2145 4.94797 45.9997 4.96931 45.8811 5.11464L35.8918 17.3253L30.4078 7.45597C30.3158 7.29063 30.1092 7.23464 29.9452 7.32397C29.7812 7.41464 29.7225 7.6213 29.8132 7.78663L35.4278 17.8906L35.3145 18.0293L35.4051 18.0799L29.9918 31.0719L15.4611 16.5426C15.3291 16.4093 15.1145 16.4093 14.9812 16.5426C14.8478 16.6746 14.8478 16.8906 14.9812 17.024L29.5225 31.5652L17.8186 36.8852L16.7066 20.1959C16.6933 20.0079 16.5345 19.8639 16.3438 19.8799C16.1571 19.8919 16.0146 20.0533 16.0266 20.2413L17.1373 36.8999L5.03051 32.4972C4.85318 32.4332 4.65848 32.5252 4.59448 32.7012C4.53048 32.8772 4.62128 33.0732 4.79728 33.1359L16.8332 37.5132L3.36124 48.5105H2.62394C2.43594 48.5105 2.28247 48.6625 2.28247 48.8505C2.28247 49.0385 2.43594 49.1905 2.62394 49.1905H4.76521L17.1145 62.6638L17.0505 62.8185L17.1545 62.8465L16.0266 79.7505C16.0146 79.9385 16.1571 80.0998 16.3438 80.1118C16.3518 80.1131 16.3599 80.1131 16.3679 80.1131C16.5452 80.1131 16.6946 79.9758 16.7066 79.7958L17.8238 63.0332L30.7731 66.6425L18.3358 79.5318L16.1211 81.8278C15.9918 81.9625 15.9959 82.1785 16.1306 82.3078C16.1972 82.3718 16.2812 82.4038 16.3666 82.4038C16.4559 82.4038 16.5452 82.3691 16.6119 82.2998L18.7225 80.1131H35.6678L45.8718 93.7198C45.9385 93.8091 46.0411 93.8558 46.1438 93.8558C46.2158 93.8558 46.2865 93.8344 46.3478 93.7878C46.4985 93.6758 46.5277 93.4624 46.4157 93.3118L36.3358 79.8705L46.9478 73.5025V95.4824L60.9397 81.4931L66.4544 92.5224C66.5384 92.6904 66.7424 92.7598 66.9104 92.6744C67.0784 92.5904 67.1464 92.3864 67.0624 92.2184L61.5997 81.2918L81.3757 82.4558L66.1237 67.2052L66.4277 67.1078C66.3917 67.2838 66.4984 67.4598 66.6757 67.5052C66.7037 67.5118 66.7304 67.5145 66.7584 67.5145C66.9117 67.5145 67.0504 67.4118 67.089 67.2572L67.1877 66.8625L79.2011 63.0012L79.2943 63.1612L79.457 62.9852L89.557 66.3518C89.7357 66.4132 89.9277 66.3145 89.9877 66.1372C90.0463 65.9585 89.949 65.7665 89.7717 65.7065L79.9651 62.4385L92.2464 49.1905H93.0996C93.2876 49.1905 93.441 49.0385 93.441 48.8505C93.441 48.6625 93.2876 48.5105 93.0996 48.5105Z" fill="white"/>
<path d="M26.3266 73.0798V23.4706H38.4678V43.3146H56.5078V23.4706H68.6491V73.0798H56.5078V53.6532H38.4678V73.0798H26.3266Z" fill="white"/>
</svg>
