<svg width="113" height="113" viewBox="0 0 113 113" fill="none" xmlns="http://www.w3.org/2000/svg">
<path d="M56 0.00110102L34.4111 4.33004L16.2796 16.5246L4.1966 34.729L0 56.1737L4.5 77.0011L16.5229 95.7221L34.7272 107.805L56 112.001L77.5873 107.673L95.7188 95.4788L107.5 77.0011L112 55.8312L107.672 34.4144L95.4771 16.2829L77.2727 4.19831L56 0.00110102Z" fill="#178CF2"/>
<mask id="mask0" mask-type="alpha" maskUnits="userSpaceOnUse" x="0" y="0" width="112" height="113">
<path d="M56 0.00110102L34.4111 4.33004L16.2796 16.5246L4.1966 34.729L0 56.1737L4.5 77.0011L16.5229 95.7221L34.7272 107.805L56 112.001L77.5873 107.673L95.7188 95.4788L107.5 77.0011L112 55.8312L107.672 34.4144L95.4771 16.2829L77.2727 4.19831L56 0.00110102Z" fill="#178CF2"/>
</mask>
<g mask="url(#mask0)">
<g opacity="0.25">
<path d="M56 0.00109863V112.002" stroke="white" stroke-linecap="round" stroke-linejoin="round"/>
<path d="M0 56.0017L112.001 56.0017" stroke="white" stroke-linecap="round" stroke-linejoin="round"/>
<path d="M34.5 4.50171L42 19.5017L55.5 27.0017" stroke="white" stroke-linecap="round" stroke-linejoin="round"/>
<path d="M34.5 108.501L42 92.5017L55.5 85.0017" stroke="white" stroke-linecap="round" stroke-linejoin="round"/>
<path d="M77.5 4.0011L70 19.5017L56.5 27.0017" stroke="white" stroke-linecap="round" stroke-linejoin="round"/>
<path d="M77.5 107.502L70 92.5017L56.5 85.0017" stroke="white" stroke-linecap="round" stroke-linejoin="round"/>
<path d="M26 56.0017L18.5 41.335L4 34.5011" stroke="white" stroke-linecap="round" stroke-linejoin="round"/>
<path d="M26 56.0017L18.5 70.6684L3.5 77.5011" stroke="white" stroke-linecap="round" stroke-linejoin="round"/>
<path d="M86 56.0017L93.5 41.335L108 34.5011" stroke="white" stroke-linecap="round" stroke-linejoin="round"/>
<path d="M86 56.0017L93.5 70.6684L108.5 77.5011" stroke="white" stroke-linecap="round" stroke-linejoin="round"/>
<path d="M16.5 16.5017L56 56.0017" stroke="white" stroke-linecap="round" stroke-linejoin="round"/>
<path d="M16 96.0011L56 56.0017" stroke="white" stroke-linecap="round" stroke-linejoin="round"/>
<path d="M95.5 16.5017L56 56.0017" stroke="white" stroke-linecap="round" stroke-linejoin="round"/>
<path d="M95.5 95.5017L56 56.0017" stroke="white" stroke-linecap="round" stroke-linejoin="round"/>
<path d="M0 56.0017L18.5 41.5017L35 35.0017L26 56.0017" stroke="white" stroke-linecap="round" stroke-linejoin="round"/>
<path d="M0 56.0017L18.5 70.5017L35 77.0017L26 56.0017" stroke="white" stroke-linecap="round" stroke-linejoin="round"/>
<path d="M112 56.0017L93.5 41.5017L77 35.0017L86 56.0017" stroke="white" stroke-linecap="round" stroke-linejoin="round"/>
<path d="M112 56.0017L93.5 70.5017L77 77.0017L86 56.0017" stroke="white" stroke-linecap="round" stroke-linejoin="round"/>
<path d="M55.5 0.00174652L42 19.5017L35.0425 35.0274L55.5 27.0017" stroke="white" stroke-linecap="round" stroke-linejoin="round"/>
<path d="M55.5 112.002L42 92.5017L35.0425 76.976L55.5 85.0017" stroke="white" stroke-linecap="round" stroke-linejoin="round"/>
<path d="M56.5 0.00109863L70 19.5017L76.9575 35.0274L56.5 27.0017" stroke="white" stroke-linecap="round" stroke-linejoin="round"/>
<path d="M56.5 112.001L70 92.5011L77.9575 76.9759L56.5 85.0011" stroke="white" stroke-linecap="round" stroke-linejoin="round"/>
</g>
</g>
<path d="M32 83.4268C32 84.2554 32.75 85.0011 33.5833 85.0011H43.5C44.4167 85.0011 45.0833 84.2554 45.0833 83.4268V61.6354H68.9167V83.4268C68.9167 84.2554 69.5833 85.0011 70.5 85.0011H80.4167C81.25 85.0011 82 84.2554 82 83.4268V28.5754C82 27.7468 81.25 27.0011 80.4167 27.0011H70.5C69.5833 27.0011 68.9167 27.7468 68.9167 28.5754V49.4554H45.0833V28.5754C45.0833 27.7468 44.4167 27.0011 43.5 27.0011H33.5833C32.75 27.0011 32 27.7468 32 28.5754V83.4268Z" fill="white"/>
</svg>
